<svg id="Layer_1" data-name="Layer 1" xmlns="http://www.w3.org/2000/svg" xmlns:xlink="http://www.w3.org/1999/xlink" viewBox="0 0 315.91 120.11"><defs><style>.cls-1{fill:none;}.cls-2{clip-path:url(#clip-path);}.cls-3{clip-path:url(#clip-path-2);}</style><clipPath id="clip-path"><rect class="cls-1" x="51.38" y="49.66" width="213.16" height="20.79"/></clipPath><clipPath id="clip-path-2"><rect class="cls-1" x="51.37" y="49.66" width="213.18" height="20.79"/></clipPath></defs><title>Centric_LogoBlack</title><g class="cls-2"><path d="M85.17,61.91l0,0.15v0l0,0.14,0,0.13,0,0.14,0,0.07-0.1.3,0,0.13-0.05.13v0.06l0,0-0.08.18-0.06.14v0l-0.11.23L84.42,64l0,0.06-0.12.23,0,0.07h0l0,0.08c-0.09.15-.18,0.29-0.27,0.44A8.54,8.54,0,0,1,72,67.13a8.45,8.45,0,0,1-.91-0.72l1.6-2.36a5.7,5.7,0,0,0,.89.75l0.07,0h0a5.8,5.8,0,0,0,.79.43h0a5.71,5.71,0,0,0,1.11.37h0.08a5.67,5.67,0,0,0,1.16.12,5.68,5.68,0,0,0,5.69-5.16v0A5.73,5.73,0,0,0,80,55.33a5.91,5.91,0,0,0-3.29-1l-0.43,0h0L76,54.4l-0.29,0h0a6.06,6.06,0,0,0-.84.24A5.89,5.89,0,0,0,71,59.16l0,0.22-2.81-.11,0-.28A8,8,0,0,1,69,56.24l0-.07h0a7.33,7.33,0,0,1,1-1.55l0,0,0.18-.21a8.44,8.44,0,0,1,5.3-2.77,8.32,8.32,0,0,1,1.25-.1,8.54,8.54,0,0,1,8.39,7v0c0,0.11,0,.22.05,0.33s0,0.11,0,.16l0,0.22c0,0.09,0,.18,0,0.27v0.12c0,0.12,0,.24,0,0.36v0a8.53,8.53,0,0,1-.2,1.85M70.52,61.1a8,8,0,0,1-.81,2.75l0,0.07a7.39,7.39,0,0,1-1,1.55l0,0-0.18.21a9.08,9.08,0,0,1-6.55,2.88,8.55,8.55,0,0,1-8.39-7v0c0-.11,0-0.22-0.05-0.33l0-.16,0-.22c0-.09,0-0.18,0-0.27s0-.08,0-0.12,0-.24,0-0.36v0a8.47,8.47,0,0,1,.2-1.85l0-.15v0l0-.14,0-.13,0-.14,0-.07,0.1-.3,0-.13L54,56.94l0,0v0l0,0,0.08-.18,0.06-.15v0l0.11-.23,0.06-.12,0-.07,0.12-.21,0-.07h0l0.05-.09c0.08-.15.17-0.29,0.27-0.43a8.53,8.53,0,0,1,12.77-1.57L66,56a5.71,5.71,0,0,0-.9-0.75l-0.07,0h0a5.78,5.78,0,0,0-.79-0.43h0a5.75,5.75,0,0,0-1.11-.37l-0.08,0h0a5.69,5.69,0,0,0-6.85,5v0a5.73,5.73,0,0,0,2.49,5.25,5.9,5.9,0,0,0,3.29,1l0.43,0h0l0.32,0,0.29-.05h0A6.16,6.16,0,0,0,64,65.4a5.89,5.89,0,0,0,3.76-4.46l0-.22,2.81,0.11ZM77,49.66A10.37,10.37,0,0,0,69.4,53a10.4,10.4,0,1,0,0,14.1A10.39,10.39,0,1,0,77,49.66"/></g><g class="cls-3"><path d="M101.25,68.85a8.14,8.14,0,0,1-5.93-2.47,8.26,8.26,0,0,1-1.74-2.7A8.84,8.84,0,0,1,93,60.35v0A8.77,8.77,0,0,1,93.58,57a8.52,8.52,0,0,1,1.74-2.73A8.09,8.09,0,0,1,98,52.43a8.26,8.26,0,0,1,3.35-.67,10.08,10.08,0,0,1,2,.19,8.48,8.48,0,0,1,1.69.53,7.64,7.64,0,0,1,1.44.83,12.5,12.5,0,0,1,1.27,1.07l-1.27,1.37a10.45,10.45,0,0,0-2.28-1.63,6.38,6.38,0,0,0-7.49,1.32,6.66,6.66,0,0,0-1.35,2.16,7.21,7.21,0,0,0-.49,2.66v0A7.29,7.29,0,0,0,95.38,63a6.67,6.67,0,0,0,1.35,2.16,6.32,6.32,0,0,0,2,1.45,6.06,6.06,0,0,0,2.54.53,6.38,6.38,0,0,0,2.93-.63,10.21,10.21,0,0,0,2.41-1.76l1.23,1.2a12,12,0,0,1-1.33,1.19A8.55,8.55,0,0,1,105,68a8.13,8.13,0,0,1-1.72.59,9.31,9.31,0,0,1-2.07.21"/><path d="M118.34,61.74a5.76,5.76,0,0,0-.35-1.57,4.43,4.43,0,0,0-.77-1.31A3.54,3.54,0,0,0,116,58a3.68,3.68,0,0,0-1.59-.33,3.54,3.54,0,0,0-1.46.31,3.7,3.7,0,0,0-1.2.86,4.83,4.83,0,0,0-.86,1.3,5.17,5.17,0,0,0-.44,1.64h7.86ZM111,64.93a4.15,4.15,0,0,0,1,1.28,4.2,4.2,0,0,0,1.32.79,4.37,4.37,0,0,0,1.54.27A4.68,4.68,0,0,0,117,66.8a6.47,6.47,0,0,0,1.66-1.25l1.13,1a7.46,7.46,0,0,1-2.1,1.67,6.2,6.2,0,0,1-2.93.63,6.1,6.1,0,0,1-2.36-.46,5.82,5.82,0,0,1-1.94-1.3,6.16,6.16,0,0,1-1.31-2,6.78,6.78,0,0,1-.48-2.6A7.06,7.06,0,0,1,109.1,60a6.27,6.27,0,0,1,1.22-2,5.67,5.67,0,0,1,1.85-1.36,5.9,5.9,0,0,1,4.76,0A5.3,5.3,0,0,1,118.72,58,6,6,0,0,1,119.83,60a8.24,8.24,0,0,1,.38,2.53v0.28a3.23,3.23,0,0,1,0,.35H110.5a4.9,4.9,0,0,0,.47,1.72"/><path d="M122.19,56.36H124v2.13a5.75,5.75,0,0,1,1.61-1.69,4.39,4.39,0,0,1,2.57-.7,5.15,5.15,0,0,1,2,.35,4.09,4.09,0,0,1,1.46,1,4.42,4.42,0,0,1,.92,1.55,5.88,5.88,0,0,1,.32,2v7.58h-1.82V61.42a3.94,3.94,0,0,0-.87-2.7,3.16,3.16,0,0,0-2.5-1,3.82,3.82,0,0,0-1.45.27,3.39,3.39,0,0,0-1.17.78,3.52,3.52,0,0,0-.77,1.22,4.34,4.34,0,0,0-.27,1.56v7h-1.82V56.36Z"/><path d="M139.65,68.78a4.8,4.8,0,0,1-1.37-.19,2.79,2.79,0,0,1-1.1-.6,2.76,2.76,0,0,1-.72-1.07,4.28,4.28,0,0,1-.26-1.58V58h-1.7V56.36h1.7V52.67H138v3.68h3.87V58H138v7.13a1.91,1.91,0,0,0,.57,1.58,2.33,2.33,0,0,0,1.49.45,3.75,3.75,0,0,0,.89-0.1,3.87,3.87,0,0,0,.89-0.35v1.56a4.06,4.06,0,0,1-1,.39,5,5,0,0,1-1.19.13"/><path d="M143.92,56.36h1.82v3.19a6.49,6.49,0,0,1,.83-1.39,5.53,5.53,0,0,1,1.13-1.1,5.07,5.07,0,0,1,1.39-.71,4.42,4.42,0,0,1,1.63-.2v2h-0.14a5,5,0,0,0-1.88.36,4.25,4.25,0,0,0-1.55,1.06,5.05,5.05,0,0,0-1,1.75,7.09,7.09,0,0,0-.38,2.43v4.86h-1.82V56.36Z"/><path d="M152.47,56.36h1.82V68.57h-1.82V56.36Zm-0.12-4.68h2.08v2h-2.08v-2Z"/><path d="M162.84,68.85a6.09,6.09,0,0,1-2.49-.51A6.2,6.2,0,0,1,157.05,65a6.37,6.37,0,0,1-.47-2.43v0A6.45,6.45,0,0,1,158.36,58a6.19,6.19,0,0,1,2-1.38,6.08,6.08,0,0,1,2.49-.51,6.86,6.86,0,0,1,1.58.17,5.82,5.82,0,0,1,1.3.47,6,6,0,0,1,1.09.71,9.79,9.79,0,0,1,.92.85l-1.21,1.28a8.6,8.6,0,0,0-1.59-1.3,3.89,3.89,0,0,0-2.11-.54,4.1,4.1,0,0,0-1.72.36,4.34,4.34,0,0,0-1.39,1,4.62,4.62,0,0,0-.92,1.5,5.1,5.1,0,0,0-.33,1.85v0a5,5,0,0,0,.34,1.85,4.77,4.77,0,0,0,.94,1.51,4.27,4.27,0,0,0,1.43,1,4.32,4.32,0,0,0,1.77.37A4.14,4.14,0,0,0,165,66.7a7,7,0,0,0,1.64-1.3l1.16,1.09a8.07,8.07,0,0,1-2.09,1.7,5.8,5.8,0,0,1-2.89.66"/><path d="M175.59,68.8a9.15,9.15,0,0,1-3.55-.67,10.38,10.38,0,0,1-3-2l0.54-.59a9.44,9.44,0,0,0,2.8,1.88,8.36,8.36,0,0,0,3.29.63,6.5,6.5,0,0,0,1.94-.27,4.55,4.55,0,0,0,1.5-.77,3.41,3.41,0,0,0,1-1.16,3.18,3.18,0,0,0,.33-1.44v0a3.36,3.36,0,0,0-.24-1.3,2.53,2.53,0,0,0-.82-1,5.88,5.88,0,0,0-1.57-.82,17.28,17.28,0,0,0-2.48-.67,17.32,17.32,0,0,1-2.58-.71,6.47,6.47,0,0,1-1.75-.93,3.2,3.2,0,0,1-1-1.23,3.91,3.91,0,0,1-.31-1.59v0a3.54,3.54,0,0,1,.4-1.67,4.44,4.44,0,0,1,1.11-1.36,5.21,5.21,0,0,1,1.7-.92A6.76,6.76,0,0,1,175,51.8a8.79,8.79,0,0,1,3.07.51,9.54,9.54,0,0,1,2.55,1.43l-0.5.64A8.1,8.1,0,0,0,175,52.53a5.76,5.76,0,0,0-1.85.28,4.63,4.63,0,0,0-1.43.76,3.3,3.3,0,0,0-.91,1.11,2.92,2.92,0,0,0-.32,1.32v0a3.3,3.3,0,0,0,.24,1.27,2.57,2.57,0,0,0,.83,1,6,6,0,0,0,1.57.83,16.93,16.93,0,0,0,2.49.67,16.1,16.1,0,0,1,2.61.72,6.28,6.28,0,0,1,1.74,1,3.26,3.26,0,0,1,1,1.23,3.9,3.9,0,0,1,.3,1.56v0a3.92,3.92,0,0,1-.4,1.76,4.34,4.34,0,0,1-1.12,1.42,5.15,5.15,0,0,1-1.75.93,7.48,7.48,0,0,1-2.3.33"/><path d="M189.09,68.12a5.29,5.29,0,0,0,2.17-.43,5.19,5.19,0,0,0,1.69-1.19,5.42,5.42,0,0,0,1.1-1.74,5.71,5.71,0,0,0,.39-2.12v0a5.55,5.55,0,0,0-.4-2.12,5.49,5.49,0,0,0-1.12-1.74,5.49,5.49,0,0,0-6-1.19,5.05,5.05,0,0,0-1.68,1.19,5.5,5.5,0,0,0-1.09,1.74,5.68,5.68,0,0,0-.39,2.12v0a5.54,5.54,0,0,0,.4,2.12,5.46,5.46,0,0,0,1.12,1.74,5.31,5.31,0,0,0,1.7,1.19,5.23,5.23,0,0,0,2.14.43m0,0.73a6.17,6.17,0,0,1-2.5-.5A6,6,0,0,1,184.62,67a6.09,6.09,0,0,1-1.26-2,6.33,6.33,0,0,1-.45-2.37v0a6.42,6.42,0,0,1,.45-2.39,6,6,0,0,1,3.22-3.34,6.5,6.5,0,0,1,5,0,6,6,0,0,1,3.2,3.32,6.33,6.33,0,0,1,.45,2.37v0a6.42,6.42,0,0,1-.45,2.38,6,6,0,0,1-1.26,2,6.08,6.08,0,0,1-4.45,1.87"/><path d="M198.38,57.35h-1.82V56.66h1.82V55.18a4,4,0,0,1,1-3,3.16,3.16,0,0,1,2.34-.87,4.75,4.75,0,0,1,.94.08,5.32,5.32,0,0,1,.78.22V52.3a4.68,4.68,0,0,0-1.72-.31,2.4,2.4,0,0,0-1.93.78,3.74,3.74,0,0,0-.67,2.48v1.42h4.27v0.68h-4.27V68.57h-0.76V57.35Z"/><path d="M208.25,68.78a2.92,2.92,0,0,1-3.17-3.26V57.35h-1.82V56.67h1.82v-4h0.76v4h4.32v0.68h-4.32v8.08a2.67,2.67,0,0,0,.65,2,2.48,2.48,0,0,0,1.83.65,4.48,4.48,0,0,0,1.79-.4v0.73a4.22,4.22,0,0,1-1.86.4"/><polygon points="211.16 56.66 212 56.66 215.74 67.58 219.49 56.59 220.11 56.59 223.86 67.58 227.62 56.66 228.4 56.66 224.17 68.66 223.53 68.66 219.8 57.8 216.04 68.66 215.41 68.66 211.16 56.66"/><path d="M233.66,68.12a6,6,0,0,0,2-.32,5.1,5.1,0,0,0,1.57-.86,4.06,4.06,0,0,0,1-1.26,3.21,3.21,0,0,0,.38-1.52V62.71a14.81,14.81,0,0,0-1.91-.47,13.46,13.46,0,0,0-2.39-.19,7.59,7.59,0,0,0-1.81.2,4.33,4.33,0,0,0-1.39.59,2.87,2.87,0,0,0-.91,1,2.57,2.57,0,0,0-.33,1.31v0a2.58,2.58,0,0,0,.31,1.28,2.83,2.83,0,0,0,.83.93,3.69,3.69,0,0,0,1.2.56,5.3,5.3,0,0,0,1.42.19m0,0.73a6.23,6.23,0,0,1-1.67-.22,4.48,4.48,0,0,1-1.45-.69,3.46,3.46,0,0,1-1-1.15,3.24,3.24,0,0,1-.38-1.59v0a3.34,3.34,0,0,1,.4-1.65,3.58,3.58,0,0,1,1.1-1.21,5.12,5.12,0,0,1,1.67-.73,8.42,8.42,0,0,1,2.1-.25,12.84,12.84,0,0,1,2.31.2,14.06,14.06,0,0,1,1.94.49V61.2a3.8,3.8,0,0,0-1.12-3,4.58,4.58,0,0,0-3.13-1,7.29,7.29,0,0,0-2,.27,10.89,10.89,0,0,0-1.83.72l-0.28-.66a12.94,12.94,0,0,1,2-.77,7.87,7.87,0,0,1,2.21-.29,5.12,5.12,0,0,1,3.78,1.3,4.06,4.06,0,0,1,.87,1.43,5.67,5.67,0,0,1,.31,1.95v7.41h-0.76V66.09a4.3,4.3,0,0,1-.66,1,4.92,4.92,0,0,1-1.05.89,5.77,5.77,0,0,1-1.44.65,6.38,6.38,0,0,1-1.85.25"/><path d="M242.35,56.66h0.76V60.3a6.45,6.45,0,0,1,.73-1.46,6,6,0,0,1,1.11-1.25,5.09,5.09,0,0,1,1.45-.86,4.49,4.49,0,0,1,1.76-.3v0.78H248a4.11,4.11,0,0,0-2,.48A5.27,5.27,0,0,0,244.5,59a5.89,5.89,0,0,0-1,1.82,6.32,6.32,0,0,0-.37,2.14v5.64h-0.76V56.66Z"/><path d="M258.62,62.21a6.74,6.74,0,0,0-.37-1.88,5.4,5.4,0,0,0-.9-1.63,4.29,4.29,0,0,0-3.43-1.59,4.48,4.48,0,0,0-1.88.39,4.7,4.7,0,0,0-1.49,1.07,5.39,5.39,0,0,0-1,1.61,5.82,5.82,0,0,0-.44,2h9.54Zm-4.43,6.64a6,6,0,0,1-2.28-.44A5.53,5.53,0,0,1,250,67.16a6,6,0,0,1-1.28-2,6.75,6.75,0,0,1-.47-2.57v0a6.85,6.85,0,0,1,.43-2.44,6,6,0,0,1,1.19-2,5.52,5.52,0,0,1,1.81-1.31,5.42,5.42,0,0,1,2.27-.47,5,5,0,0,1,2.36.53,5.33,5.33,0,0,1,1.71,1.4,6,6,0,0,1,1,2,8,8,0,0,1,.34,2.33V62.9H249.08a5.8,5.8,0,0,0,.49,2.18,5.29,5.29,0,0,0,1.13,1.64,4.82,4.82,0,0,0,1.6,1,5.13,5.13,0,0,0,1.91.36,4.84,4.84,0,0,0,2.49-.64,6.2,6.2,0,0,0,1.8-1.56l0.57,0.45a7.11,7.11,0,0,1-2,1.77,5.51,5.51,0,0,1-2.84.71"/><polygon points="261.63 55.7 261.06 55.7 261.06 55.5 262.46 55.5 262.46 55.7 261.88 55.7 261.88 57.39 261.63 57.39 261.63 55.7"/><path d="M264.26,56.56c0-.26,0-0.58,0-0.82h0c-0.07.22-.14,0.46-0.24,0.72l-0.33.92h-0.18l-0.31-.9c-0.09-.27-0.17-0.51-0.22-0.74h0c0,0.24,0,.55,0,0.84l0,0.81h-0.23l0.13-1.89h0.31l0.32,0.91c0.08,0.23.14,0.44,0.19,0.64h0c0-.19.11-0.4,0.2-0.64l0.34-.91h0.31l0.12,1.89h-0.24Z"/></g></svg>