<svg xmlns="http://www.w3.org/2000/svg" width="327" height="327" viewBox="0 0 327 327">
    <g fill="none" fill-rule="evenodd">
        <path fill="#B7BBBC" d="M0 0h327v327H0z"/>
        <path fill="#F4F3F1" d="M163.244 175.309c5.588 0 10.136-4.548 10.136-10.136 0-5.59-4.548-10.138-10.136-10.138-5.6 0-10.155 4.548-10.155 10.138 0 5.588 4.555 10.136 10.155 10.136zm0-18.254c4.474 0 8.116 3.64 8.116 8.118 0 4.475-3.642 8.116-8.116 8.116-4.486 0-8.135-3.641-8.135-8.116 0-4.478 3.649-8.118 8.135-8.118zm27.573-11.635h-35.399v-2.977a1.01 1.01 0 0 0-1.01-1.01h-10.743a1.01 1.01 0 0 0-1.01 1.01v2.977h-7.005a1.01 1.01 0 0 0-1.01 1.01v37.248c0 .557.452 1.01 1.01 1.01h55.167a1.01 1.01 0 0 0 1.01-1.01V146.43a1.01 1.01 0 0 0-1.01-1.01zm-1.01 37.248H136.66V147.44h7.005a1.01 1.01 0 0 0 1.01-1.01v-2.977h8.723v2.977c0 .56.453 1.01 1.01 1.01h35.4v35.228z"/>
    </g>
</svg>
