<svg xmlns="http://www.w3.org/2000/svg" width="60" height="60" viewBox="0 0 60 60">
    <g fill="none" fill-rule="evenodd">
        <path fill="#B7BBBC" d="M0 0h60v60H0z"/>
        <path fill="#F4F3F1" d="M30.262 35.89a5.06 5.06 0 0 0 5.054-5.053 5.06 5.06 0 0 0-5.054-5.055 5.065 5.065 0 0 0-5.063 5.055c0 2.786 2.271 5.053 5.063 5.053zm0-9.1a4.051 4.051 0 0 1 4.047 4.047 4.052 4.052 0 0 1-8.103 0 4.056 4.056 0 0 1 4.056-4.048zm13.748-5.802H26.36v-1.484a.504.504 0 0 0-.503-.504H20.5a.504.504 0 0 0-.504.504v1.484h-3.492a.504.504 0 0 0-.504.504v18.571c0 .278.226.504.504.504H44.01a.504.504 0 0 0 .504-.504V21.492a.504.504 0 0 0-.504-.504zm-.504 18.572H17.007V21.995H20.5a.503.503 0 0 0 .503-.503v-1.485h4.35v1.485c0 .278.226.503.504.503h17.65V39.56z"/>
    </g>
</svg>
